<?xml version="1.0" encoding="UTF-8"?>
<svg id="Layer_2" data-name="Layer 2" xmlns="http://www.w3.org/2000/svg" viewBox="0 0 243.59 304.07">
  <defs>
    <style>
      .cls-1 { fill: #0f9d8f; }
      .cls-2 { fill: #22c55e; }
      .cls-3 { fill: #0b4f6c; }
      .cls-white { fill: #ffffff; }

      .dark-mode-only { display: none; }
      
      @media (prefers-color-scheme: dark) {
        .light-mode-only { display: none; }
        .dark-mode-only { display: block; }
      }
    </style>
  </defs>
  <g id="Layer_1-2" data-name="Layer 1">
    <!-- LIGHT MODE (Original Colored Monogram) -->
    <g class="light-mode-only">
      <path class="cls-2" d="M235.54.75c3.56-2.1,8.05.46,8.05,4.6v181.01c-3.11,51.75-48.16,103.32-106.68,115.16-23.12,4.03-45.54,3.17-65.33-1.65,12.37-4.1,23.8-8.97,34.42-14.67,23.98-12.85,43.71-30.1,58.13-50.66,5.18-7.36,9.68-15.15,13.43-23.32,9.08-19.72,14.08-42.88,14.08-65.23V50.55c0-14.79,7.82-28.49,20.55-36.01L235.54.75Z"/>
      <path class="cls-1" d="M129.33,63.46c-12.74,7.52-20.55,21.22-20.55,36.01v46.52c0,10.32-2.42,21.75-6.49,30.57-12.43,27.02-41.1,44.09-87.66,52.21-4.88.85-9.76,1.45-14.63,1.79.11,1.32.26,2.66.46,3.98.09.64.19,1.29.3,1.92,3.02,17.09,12.83,31.81,27.26,43.1,24.86-4.68,45.68-11.64,63.59-21.23,12.37-6.64,23.35-14.64,32.69-23.8,10.8-10.6,19.44-22.73,25.57-36.06,7.28-15.81,11.29-34.45,11.29-52.48V54.02c0-4.13-4.49-6.7-8.05-4.6l-23.77,14.04Z"/>
      <path class="cls-3" d="M40.44,115.95c-9.22,5.44-16,14.22-18.95,24.51l-16.87,59h0c1.59-.2,3.18-.45,4.77-.72,35.46-6.17,57.4-17.92,65.22-34.92,2.21-4.8,3.7-11.96,3.7-17.83v-43.05c0-4.13-4.49-6.7-8.05-4.6l-29.81,17.6Z"/>
    </g>

    <!-- DARK MODE (Monotone White Version) - Centered and scaled slightly to match the 243x304 canvas -->
    <g class="dark-mode-only" transform="translate(19.25, 24.03)">
      <path class="cls-white" d="M198.3.63c3-1.77,6.78.39,6.78,3.87v152.39c-2.61,43.57-40.55,86.99-89.81,96.95-19.47,3.39-38.34,2.67-55-1.39,10.42-3.46,20.04-7.55,28.98-12.35,20.19-10.82,36.8-25.34,48.94-42.65,4.36-6.2,8.15-12.76,11.3-19.64,7.64-16.6,11.85-36.1,11.85-54.91V42.56c0-12.46,6.58-23.98,17.31-30.32L198.3.63Z"/>
      <path class="cls-white" d="M108.88,53.43c-10.72,6.33-17.31,17.86-17.31,30.32v39.16c0,8.69-2.04,18.31-5.46,25.74-10.46,22.75-34.6,37.12-73.8,43.95-4.11.71-8.22,1.22-12.32,1.51.1,1.11.22,2.24.38,3.35.07.54.16,1.08.26,1.62,2.54,14.39,10.8,26.78,22.95,36.29,20.93-3.94,38.46-9.8,53.53-17.87,10.42-5.59,19.66-12.32,27.52-20.04,9.09-8.92,16.36-19.14,21.53-30.36,6.13-13.31,9.5-29,9.5-44.19V45.48c0-3.48-3.78-5.64-6.78-3.87l-20.01,11.82Z"/>
      <path class="cls-white" d="M34.04,97.62c-7.76,4.58-13.47,11.97-15.95,20.64l-14.2,49.67h0c1.34-.17,2.68-.38,4.02-.61,29.85-5.2,48.32-15.09,54.91-29.4,1.86-4.04,3.11-10.07,3.11-15.01v-36.24c0-3.48-3.78-5.64-6.78-3.87l-25.1,14.82Z"/>
    </g>
  </g>
</svg>