<?xml version="1.0" encoding="UTF-8"?>
<svg id="Layer_2" data-name="Layer 2" xmlns="http://www.w3.org/2000/svg" xmlns:xlink="http://www.w3.org/1999/xlink" viewBox="0 0 433.35 433.35">
  <defs>
    <style>
      .cls-1 {
        fill: url(#radial-gradient);
        fill-rule: evenodd;
      }

      .cls-2 {
        fill: #fff;
      }
    </style>
    <radialGradient id="radial-gradient" cx="484.4" cy="-33.14" fx="484.4" fy="-33.14" r="847.06" gradientUnits="userSpaceOnUse">
      <stop offset="0" stop-color="#22c55e"/>
      <stop offset=".34" stop-color="#15ab7d"/>
      <stop offset=".51" stop-color="#0f9d8f"/>
      <stop offset="1" stop-color="#0b4f6c"/>
    </radialGradient>
  </defs>
  <g id="Layer_1-2" data-name="Layer 1">
    <g>
      <path class="cls-1" d="M113.76,8.4C141.9,2.15,176.03,0,216.67,0s74.78,2.15,102.92,8.4c28.39,6.31,51.98,17.08,70.13,35.23,18.15,18.15,28.92,41.74,35.23,70.13,6.25,28.14,8.4,62.28,8.4,102.92s-2.15,74.78-8.4,102.92c-6.31,28.39-17.08,51.98-35.23,70.13-18.15,18.15-41.74,28.92-70.13,35.23-28.14,6.25-62.28,8.4-102.92,8.4s-74.78-2.15-102.92-8.4c-28.39-6.31-51.98-17.08-70.13-35.23-18.15-18.15-28.92-41.74-35.23-70.13C2.15,291.45,0,257.32,0,216.67s2.15-74.78,8.4-102.92c6.31-28.39,17.08-51.98,35.23-70.13C61.78,25.48,85.37,14.71,113.76,8.4Z"/>
      <g>
        <path class="cls-2" d="M312.43,89.31c3-1.77,6.78.39,6.78,3.87v152.39c-2.61,43.57-40.55,86.99-89.81,96.95-19.47,3.39-38.34,2.67-55-1.39,10.42-3.46,20.04-7.55,28.98-12.35,20.19-10.82,36.8-25.34,48.94-42.65,4.36-6.2,8.15-12.76,11.3-19.64,7.64-16.6,11.85-36.1,11.85-54.91v-80.35c0-12.46,6.58-23.98,17.31-30.32l19.66-11.61Z"/>
        <path class="cls-2" d="M223.02,142.1c-10.72,6.33-17.31,17.86-17.31,30.32v39.16c0,8.69-2.04,18.31-5.46,25.74-10.46,22.75-34.6,37.12-73.8,43.95-4.11.71-8.22,1.22-12.32,1.51.1,1.11.22,2.24.38,3.35.07.54.16,1.08.26,1.62,2.54,14.39,10.8,26.78,22.95,36.29,20.93-3.94,38.46-9.8,53.53-17.87,10.42-5.59,19.66-12.32,27.52-20.04,9.09-8.92,16.36-19.14,21.53-30.36,6.13-13.31,9.5-29,9.5-44.19v-77.43c0-3.48-3.78-5.64-6.78-3.87l-20.01,11.82Z"/>
        <path class="cls-2" d="M148.18,186.29c-7.76,4.58-13.47,11.97-15.95,20.64l-14.2,49.67h0c1.34-.17,2.68-.38,4.02-.61,29.85-5.2,48.32-15.09,54.91-29.4,1.86-4.04,3.11-10.07,3.11-15.01v-36.24c0-3.48-3.78-5.64-6.78-3.87l-25.1,14.82Z"/>
      </g>
    </g>
  </g>
</svg>